PathFileType	4	(X/Y/Z)	C:\Users\Basilio\Documents\Thesis Gigler\squatting_fais\c3dfiles\073\SLS_back_pre4\markers_experimental.trc
DataRate	CameraRate	NumFrames	NumMarkers	Units	OrigDataRate	OrigDataStartFrame	OrigNumFrames
200.000000	200.000000	4	61	mm	200.000000	502	1341
Frame#	Time	FHD			LBHD			RBHD			C7			T10			CLAV			LSHO			LUUPA			LMUPA			LDUPA			LLEP			LMEP			LRAD			LUL			LRFIN			RSHO			RUPA1			RMUPA			RDUPA			RLEP			RMEP			RUL			RUFIN			LASI			RASI			USACR			LSACR			RSACR			LTHI1			LTHI2			LTHI3			LTHI4			LLFC			LTIB1			LTIB2			LTIB3			LTIB4			LLMAL			LMMAL			LHEE			LMT1			LMT2			LMT5			RTHI			RTHI2			RTHI3			RTHI4			RLFC			RMFC			RTIB1			RTIB2			RTIB3			RTIB4			RLMAL			RMMAL			RHEE			RMT1			RMT2			RMT5			LMFC			RRAD			
		X1	Y1	Z1	X2	Y2	Z2	X3	Y3	Z3	X4	Y4	Z4	X5	Y5	Z5	X6	Y6	Z6	X7	Y7	Z7	X8	Y8	Z8	X9	Y9	Z9	X10	Y10	Z10	X11	Y11	Z11	X12	Y12	Z12	X13	Y13	Z13	X14	Y14	Z14	X15	Y15	Z15	X16	Y16	Z16	X17	Y17	Z17	X18	Y18	Z18	X19	Y19	Z19	X20	Y20	Z20	X21	Y21	Z21	X22	Y22	Z22	X23	Y23	Z23	X24	Y24	Z24	X25	Y25	Z25	X26	Y26	Z26	X27	Y27	Z27	X28	Y28	Z28	X29	Y29	Z29	X30	Y30	Z30	X31	Y31	Z31	X32	Y32	Z32	X33	Y33	Z33	X34	Y34	Z34	X35	Y35	Z35	X36	Y36	Z36	X37	Y37	Z37	X38	Y38	Z38	X39	Y39	Z39	X40	Y40	Z40	X41	Y41	Z41	X42	Y42	Z42	X43	Y43	Z43	X44	Y44	Z44	X45	Y45	Z45	X46	Y46	Z46	X47	Y47	Z47	X48	Y48	Z48	X49	Y49	Z49	X50	Y50	Z50	X51	Y51	Z51	X52	Y52	Z52	X53	Y53	Z53	X54	Y54	Z54	X55	Y55	Z55	X56	Y56	Z56	X57	Y57	Z57	X58	Y58	Z58	X59	Y59	Z59	X60	Y60	Z60	X61	Y61	Z61	

503	2.51	-17.85408782958985	1347.820922851563	-765.8663330078126	-152.9532165527344	1323.609741210938	-792.3271484375002	-178.9555358886719	1307.989868164063	-659.0486450195314	-211.2331848144532	1238.865966796875	-722.1954345703126	-425.4666137695314	989.987243652344	-737.9915161132814	-128.5599060058594	1110.549194335938	-721.1477050781251	-136.1728515625	1184.472045898438	-852.0025634765627	-71.25054931640626	1107.449951171875	-953.5588378906252	-28.48925781250001	1117.900512695313	-929.5015869140627	-14.95687580108643	1070.605102539063	-966.3953857421877	84.14622497558595	1029.3916015625	-970.3898925781252	72.7594680786133	973.5096435546877	-927.9825439453127	341.8135375976563	1024.951049804688	-852.1019287109377	347.4680175781251	1020.72802734375	-926.1937255859377	424.2047119140626	1024.300537109375	-842.9332275390627	-126.2010040283203	1170.017333984375	-587.7130126953126	-59.49882888793947	1066.89599609375	-479.1932067871095	-17.34562683105469	1082.004638671875	-496.3996887207032	-1.627226352691651	1029.566650390625	-471.989471435547	87.72963714599611	1000.55517578125	-470.269744873047	79.34500122070314	947.0547485351565	-533.5385742187501	350.5385437011719	1027.724853515625	-518.9465942382814	429.3242492675782	1042.360717773438	-598.2491455078126	-369.7794494628907	760.7507934570314	-855.212097167969	-362.9823303222657	795.7527465820315	-615.6851196289064	-507.6820068359376	905.6737060546877	-734.3851928710939	-529.2962036132814	881.1763916015627	-759.0077514648439	-534.2919311523439	888.209411621094	-702.5452270507814	-445.6005859375001	458.2376098632814	-903.3653564453127	-414.7101135253907	380.4665832519532	-884.543640136719	-373.8222351074219	381.9492187500001	-857.2610473632815	-449.3730468750001	332.4974060058594	-874.0054321289065	-465.1589965820314	290.7721252441407	-874.1680297851565	-637.2233886718751	227.1959838867188	-823.166931152344	-676.8943481445314	281.5050964355469	-878.396179199219	-684.2116088867189	244.3324890136719	-856.4667968750002	-762.5117797851564	245.6964111328126	-823.979431152344	-879.2349853515627	306.8685607910157	-854.695495605469	-854.9147949218752	299.2218627929688	-768.840759277344	-902.3435668945315	372.0339965820313	-814.6406250000002	-935.5478515625002	154.5532379150391	-761.7595214843751	-936.8796386718752	149.5596618652344	-800.9332275390627	-958.343933105469	183.7414093017578	-854.2278442382815	-345.1863403320313	631.7719726562501	-546.4763793945314	-280.9314270019532	618.4866333007814	-557.4246215820314	-259.5093994140626	642.2294921875001	-565.4164428710939	-248.0892639160157	544.9127807617189	-581.2351684570314	-158.237045288086	450.2491455078126	-624.4574584960939	-167.1005401611328	457.8470458984376	-750.0945434570314	-183.7975463867188	305.9219360351563	-731.2507324218751	-232.5225067138672	233.7758178710938	-667.2243652343751	-217.4317626953126	227.5580749511719	-711.4418945312501	-259.0377807617188	201.2492828369141	-742.9241943359376	-351.4444274902344	93.99038696289064	-688.9516601562501	-344.8952636718751	126.6291656494141	-775.4959716796877	-430.457244873047	80.3532180786133	-744.1784667968751	-206.271469116211	55.38463592529298	-761.6077270507814	-206.0410156250001	52.42398834228517	-719.9826049804689	-248.4571990966797	35.13960647583009	-671.1838989257814	-472.8763122558595	292.2720642089844	-737.6959838867189	338.5325622558594	1020.763793945313	-593.1537475585939	
504	2.515	-16.89027786254883	1346.479370117188	-765.7703247070314	-152.4673767089844	1322.217163085938	-792.2720947265627	-178.474105834961	1306.68359375	-659.3956298828126	-210.6946716308594	1237.682983398438	-722.1790161132814	-425.173309326172	989.1604003906252	-738.1016845703126	-127.9993362426758	1108.977905273438	-721.1349487304689	-135.6364135742188	1183.22998046875	-851.9853515625002	-70.78196716308595	1106.275634765625	-953.4356689453127	-27.86298561096192	1116.555541992188	-929.5705566406252	-14.48558807373047	1069.245361328125	-966.189147949219	84.61489868164064	1028.21240234375	-970.4468383789065	73.35540008544923	972.0425415039065	-927.9014282226565	342.3566284179688	1023.750366210938	-852.1733398437502	348.1050109863282	1019.418518066406	-926.2409667968752	424.7811889648439	1023.150939941406	-842.943542480469	-125.7341690063477	1168.85546875	-587.7890014648439	-59.13046646118165	1065.84326171875	-479.2121887207032	-16.89836883544922	1080.83837890625	-496.0477905273439	-1.187400102615357	1028.313598632813	-471.9468383789064	88.18003845214845	999.3165283203127	-470.3803100585939	79.69400024414064	945.8413696289065	-533.4777832031251	350.8986511230469	1026.337524414063	-518.9590454101564	429.662811279297	1040.990234375	-598.2441406250001	-369.7110595703126	759.8457031250001	-855.0465087890627	-363.0750732421876	795.0494384765627	-615.5592041015626	-507.526580810547	904.923034667969	-734.5123901367189	-529.1298217773439	880.3658447265627	-759.1393432617189	-534.2885742187501	887.6052246093752	-702.6948852539064	-445.5011291503907	457.3696899414064	-903.2552490234377	-414.8404846191407	379.6392211914063	-884.5397949218752	-373.9202270507813	380.9918518066407	-857.1341552734377	-449.405487060547	331.5118103027344	-873.935974121094	-465.2532348632814	289.9332275390626	-874.0346679687502	-637.3010253906251	226.530990600586	-823.277282714844	-676.8895263671876	280.7871704101563	-878.376159667969	-684.4712524414064	243.754379272461	-856.5103759765627	-762.6192016601564	245.1159057617188	-824.0611572265627	-879.256774902344	306.3997192382813	-854.7320556640627	-854.9917602539065	298.7407226562501	-768.9312744140627	-902.2778320312502	371.6149597167969	-814.7258911132815	-935.6729125976565	154.0543823242188	-762.0156860351564	-936.985534667969	149.1985473632813	-800.993347167969	-958.5427856445315	183.4649047851563	-854.3098144531252	-345.2640075683594	631.3168334960939	-546.3925781250001	-280.9307250976563	618.1536254882814	-557.2082519531251	-259.6013183593751	641.9561767578126	-565.2733764648439	-248.0159759521485	544.6203002929689	-581.0573120117189	-158.0617065429688	450.0629272460939	-624.2835083007814	-166.9481201171875	457.6726989746095	-749.9005737304689	-183.6170501708985	305.7797546386719	-731.1798095703126	-232.4342193603516	233.6215362548829	-667.1651611328126	-217.3885498046876	227.4552917480469	-711.3499755859376	-258.9855651855469	201.1373443603516	-742.8348999023439	-351.4465942382813	93.97431945800783	-688.9517822265626	-344.8409729003907	126.6078109741211	-775.523376464844	-430.4568176269532	80.3256072998047	-744.2031860351564	-206.2042236328126	55.40271377563478	-761.5475463867189	-206.0533294677735	52.3807830810547	-719.9699096679689	-248.4328918457032	35.12474822998048	-671.1917114257814	-472.914276123047	291.4570922851563	-737.5991210937501	339.0323181152344	1019.5947265625	-592.8538208007814	
505	2.52	-16.6895809173584	1345.409545898438	-765.4952392578126	-151.9396209716797	1321.081420898438	-792.3259887695315	-178.0913391113282	1305.530883789063	-659.2734375000001	-210.1594848632813	1236.53564453125	-722.2286987304689	-424.8552551269532	988.2778930664065	-738.2710571289064	-127.5687942504883	1107.924072265625	-721.1566772460939	-135.010986328125	1182.085327148438	-851.9195556640627	-70.13731384277345	1105.063720703125	-953.5125122070315	-27.28876686096192	1115.348022460938	-929.4176025390627	-13.99217700958252	1067.89599609375	-966.101257324219	85.31792449951173	1026.914916992188	-970.3367919921877	73.93069458007814	970.9079589843752	-927.8607177734377	342.9616088867188	1022.547119140625	-852.1526489257815	348.5900573730469	1018.190185546875	-926.1781005859377	425.3479614257814	1021.794738769531	-842.9208984375002	-125.2357254028321	1167.6611328125	-587.7778930664064	-58.72129821777345	1064.653686523438	-479.299041748047	-16.53096771240235	1079.682006835938	-496.3988342285157	-0.7913079261779787	1027.216674804688	-471.9367980957032	88.60713958740236	998.1904296875002	-470.2832641601564	80.02233886718751	944.5789794921877	-533.4193115234376	351.3035278320313	1025.067016601563	-519.0073852539064	430.0772094726564	1039.623291015625	-598.2787475585939	-369.5965881347657	758.8303222656251	-854.9759521484377	-363.0253295898438	794.6286621093752	-615.5211791992189	-507.4519042968751	904.2507934570315	-734.6901245117189	-529.1888427734376	879.6114501953127	-759.2666015625001	-534.2648925781251	886.973571777344	-702.8666381835939	-445.4917907714845	456.5426330566407	-903.1282958984377	-414.8865661621095	378.7762451171876	-884.338073730469	-373.8879699707032	380.0888671875001	-856.9905395507815	-449.5663146972657	330.7146911621094	-873.8401489257815	-465.1643676757814	289.0502929687501	-873.9028320312502	-637.4235839843751	225.8125762939454	-823.1309204101565	-676.9908447265626	280.2062683105469	-878.433044433594	-684.5242309570314	243.078109741211	-856.4343872070315	-762.6920776367189	244.6608123779297	-824.1331787109377	-879.2844848632815	306.1182861328126	-854.7860107421877	-855.032897949219	298.2722473144532	-768.9773559570315	-902.2434082031252	371.2716064453126	-814.7469482421877	-935.8823242187502	153.6299438476563	-762.2232055664064	-937.0662231445315	148.8284454345703	-801.113220214844	-958.7563476562502	183.1439819335938	-854.4566650390627	-345.3099365234376	630.9630126953126	-546.2443847656251	-280.9393310546876	617.8452758789064	-557.1538696289064	-259.6398315429688	641.6958007812501	-565.1676635742189	-247.9181060791016	544.2871704101564	-580.8153076171876	-157.9149322509766	449.8734130859376	-624.1646728515626	-166.8040466308594	457.5643310546876	-749.7419433593751	-183.522201538086	305.6225585937501	-731.0578613281251	-232.4075622558594	233.5528411865235	-667.1094970703126	-217.3332214355469	227.3557891845704	-711.2750244140626	-258.8517761230469	201.0913543701172	-742.8262939453126	-351.4169006347657	93.95615386962892	-688.9425659179689	-344.8775024414063	126.6564712524414	-775.5150146484377	-430.4738769531251	80.27569580078126	-744.2869873046876	-206.2757263183594	55.37785720825197	-761.5671386718751	-206.0502624511719	52.40396118164064	-719.9630126953126	-248.4617004394532	35.12420272827149	-671.1900024414064	-473.0498657226564	290.5648193359376	-737.5153808593751	339.4383239746094	1018.183959960938	-593.1343994140626	
506	2.525	-16.46428680419922	1343.990112304688	-765.4230957031251	-151.2010955810547	1319.838134765625	-792.2718505859377	-177.6222076416016	1304.233520507813	-659.3737792968751	-209.5696411132813	1235.31591796875	-722.2809448242189	-424.7009277343751	987.3841552734377	-738.3775024414064	-127.0168838500977	1106.633056640625	-721.0823364257814	-134.5490264892578	1180.75634765625	-851.921325683594	-69.6708221435547	1103.728393554688	-953.5413208007815	-26.74536132812501	1114.188354492188	-929.413269042969	-13.21343135833741	1066.900024414063	-966.3134765625002	85.75154113769533	1025.6337890625	-970.2896728515627	74.48313140869142	969.7064208984377	-927.745300292969	343.5161437988282	1021.197387695313	-852.139831542969	349.0554809570313	1016.905578613281	-926.2318115234377	425.8988037109376	1020.743896484375	-842.9791259765627	-124.7428741455078	1166.55517578125	-587.8894042968751	-58.2681007385254	1063.50439453125	-479.1550598144532	-16.03405380249024	1078.478515625	-496.3651733398439	-0.4033532142639161	1026.067504882813	-471.948699951172	89.02260589599611	996.907653808594	-470.2681274414064	80.47991180419923	943.3791503906252	-533.4841308593751	351.7047119140626	1023.775024414063	-518.9860229492189	430.5014648437501	1038.271484375	-598.2935791015626	-369.6491088867188	757.8034057617189	-854.746765136719	-363.3764343261719	793.6743164062502	-615.3377075195314	-507.373016357422	903.4354248046877	-734.8622436523439	-529.1442871093751	878.931823730469	-759.3831176757814	-534.2672729492189	886.2847290039065	-703.0336303710939	-445.6034545898439	455.7481689453126	-903.122985839844	-414.8773193359376	377.9859313964844	-884.2376098632815	-373.8593139648438	379.2004089355469	-856.8821411132815	-449.7027893066407	330.0194702148438	-873.6794433593752	-465.1141967773439	288.1988830566407	-873.7022705078127	-637.4910278320314	225.1173400878907	-822.9844360351565	-677.0363159179689	279.6665344238282	-878.3663330078127	-684.3684692382814	242.3321990966797	-856.3670654296877	-762.7780151367189	244.102523803711	-824.082702636719	-878.960876464844	305.6961975097657	-854.5662841796877	-855.0489501953127	297.8179321289063	-769.0086059570315	-902.1619873046877	370.8716125488282	-814.8320312500002	-935.988464355469	153.3087921142578	-762.2470092773439	-937.0889282226565	148.4678802490235	-801.2753906250002	-958.8269653320315	182.8236999511719	-854.6436767578127	-345.3691711425782	630.5501708984376	-546.0937500000001	-280.9916687011719	617.5488281250001	-557.0350341796876	-259.7288208007813	641.3640747070314	-565.0100097656251	-247.8695220947266	543.9835815429689	-580.5673828125001	-157.7810211181641	449.6983032226564	-624.0549316406251	-166.6054992675782	457.4472656250001	-749.5889282226564	-183.2709655761719	305.4835815429688	-731.0116577148439	-232.320785522461	233.4345703125001	-667.0701904296876	-217.2266082763672	227.2701873779297	-711.2304687500001	-258.7948913574219	201.0284729003907	-742.7698974609376	-351.4579162597657	93.95339965820314	-688.9691772460939	-344.8492736816407	126.6355133056641	-775.5189208984377	-430.4331970214845	80.27857208251955	-744.3515014648439	-206.2865295410157	55.39939498901369	-761.5620117187501	-206.0442199707032	52.40328216552736	-719.9638061523439	-248.4607696533204	35.12461090087891	-671.1892089843751	-473.1275939941407	289.7281494140626	-737.3469848632814	339.7875976562501	1016.894592285156	-592.9812011718751	
